<svg xmlns="http://www.w3.org/2000/svg" width="1460" height="1060" viewBox="0 0 1460 1060" font-family="Liberation Sans, Helvetica, Arial, sans-serif" xmlns:c2pa="http://c2pa.org/manifest"><metadata><c2pa:manifest>AAAWgmp1bWIAAAAeanVtZGMycGEAEQAQgAAAqgA4m3EDYzJwYQAAABZcanVtYgAAAEdqdW1kYzJtYQARABCAAACqADibcQN1cm46YzJwYTo3MDUzMmIzMi1lMDZkLTQ5NjItYTRhZC0xZjBmNWFkNmQ4MzEAAAADl2p1bWIAAAApanVtZGMyYXMAEQAQgAAAqgA4m3EDYzJwYS5hc3NlcnRpb25zAAAAALxqdW1iAAAARGp1bWRjYm9yABEAEIAAAKoAOJtxE2MycGEuaW5ncmVkaWVudC52MwAAAAAYYzJzaPDEqC9kqEzc1fU56I9VfTQAAABwY2JvcqNpZGM6Zm9ybWF0bWltYWdlL3N2Zyt4bWxqaW5zdGFuY2VJRHgseG1wOmlpZDo2ZmIzN2EzNC1mODQxLTQxM2MtODI4Zi0wYWMyMTViNmEyNGFscmVsYXRpb25zaGlwaHBhcmVudE9mAAAB4mp1bWIAAABBanVtZGNib3IAEQAQgAAAqgA4m3ETYzJwYS5hY3Rpb25zLnYyAAAAABhjMnNoO4mvJa7OPAK5K6h4mcazuwAAAZljYm9yomdhY3Rpb25zgqJmYWN0aW9ua2MycGEub3BlbmVkanBhcmFtZXRlcnOha2luZ3JlZGllbnRzgaJjdXJseC1zZWxmI2p1bWJmPWMycGEuYXNzZXJ0aW9ucy9jMnBhLmluZ3JlZGllbnQudjNkaGFzaFgggG7vVZ7Lg5LLqBRi7XM+mRRVvC7VcL+P1iFEHV5/JQCkZmFjdGlvbngdY29tLmFudGhyb3BpYy5jbGF1ZGUucHJvdmlkZWRqcGFyYW1ldGVyc6F4H2NvbS5hbnRocm9waWMub3JpZ2luLWNvbmZpZGVuY2VndW5rbm93bmtkZXNjcmlwdGlvbnhmQ2xhdWRlIHByb3ZpZGVkIHRoaXMgZmlsZSBhdCB0aGUgcmVxdWVzdCBvZiBhIHVzZXIgYW5kIG1heSBoYXZlIGNyZWF0ZWQgb3IgbW9kaWZpZWQgdGhlIGZpbGUgY29udGVudHMubXNvZnR3YXJlQWdlbnShZG5hbWVmQ2xhdWRlcmFsbEFjdGlvbnNJbmNsdWRlZPUAAADIanVtYgAAAEBqdW1kY2JvcgARABCAAACqADibcRNjMnBhLmhhc2guZGF0YQAAAAAYYzJzaOL4OGR3LXltdLZrHujs3wcAAACAY2JvcqVjYWxnZnNoYTI1NmNwYWRNAAAAAAAAAAAAAAAAAGRoYXNoWCD/iBGaTugC+/29gWP7EHTEEr/2w2OPexbLqzzfrTxhY2RuYW1lbmp1bWJmIG1hbmlmZXN0amV4Y2x1c2lvbnOBomVzdGFydBjWZmxlbmd0aBkeBAAAAj5qdW1iAAAAJ2p1bWRjMmNsABEAEIAAAKoAOJtxA2MycGEuY2xhaW0udjIAAAACD2Nib3KlY2FsZ2ZzaGEyNTZpc2lnbmF0dXJleE1zZWxmI2p1bWJmPS9jMnBhL3VybjpjMnBhOjcwNTMyYjMyLWUwNmQtNDk2Mi1hNGFkLTFmMGY1YWQ2ZDgzMS9jMnBhLnNpZ25hdHVyZWppbnN0YW5jZUlEeCx4bXA6aWlkOjI4OTE0YTBiLTE5ZmItNDJmMi04NDc3LWExZDIzNjBhYWQwZnJjcmVhdGVkX2Fzc2VydGlvbnODomN1cmx4LXNlbGYjanVtYmY9YzJwYS5hc3NlcnRpb25zL2MycGEuaW5ncmVkaWVudC52M2RoYXNoWCCAbu9VnsuDksuoFGLtcz6ZFFW8LtVwv4/WIUQdXn8lAKJjdXJseCpzZWxmI2p1bWJmPWMycGEuYXNzZXJ0aW9ucy9jMnBhLmFjdGlvbnMudjJkaGFzaFggI70NK5dRsUkPgsf4aPJSacL1Vsk6JYWkXPiTbYeTsi2iY3VybHgpc2VsZiNqdW1iZj1jMnBhLmFzc2VydGlvbnMvYzJwYS5oYXNoLmRhdGFkaGFzaFggxVQWCWxZv8DAqBkPoe+lOZW7ea+pxuFzbeD0F1R4dFR0Y2xhaW1fZ2VuZXJhdG9yX2luZm+jZG5hbWVvQW50aHJvcGljIEZpbGVzZ3ZlcnNpb25lMS4wLjBrc3BlY1ZlcnNpb25lMi40LjAAABA4anVtYgAAAChqdW1kYzJjcwARABCAAACqADibcQNjMnBhLnNpZ25hdHVyZQAAABAIY2JvctKEWQISogEmGCFZAgowggIGMIIBjaADAgECAhRA5aAK7sI50L64g/oGQgU9Z1UTADAKBggqhkjOPQQDAzBJMRcwFQYDVQQKEw5BbnRocm9waWMsIFBCQzEuMCwGA1UEAxMlQW50aHJvcGljIENvbnRlbnQgQ3JlZGVudGlhbHMgUm9vdCBDQTAeFw0yNjA4MDcxODQzNTZaFw0yODA4MDYxOTQzNTZaMEQxFzAVBgNVBAoTDkFudGhyb3BpYywgUEJDMSkwJwYDVQQDEyBBbnRocm9waWMgQ2xhdWRlIENvbnRlbnQgU2lnbmluZzBZMBMGByqGSM49AgEGCCqGSM49AwEHA0IABJh6CmvLUBgFFNU0vUKlOVtE6djd17L5SuwX0LemFisBM3dkd/3cyjxFA3Qo5S46fX0/ihY0VZ7mfb9KF703t5OjWDBWMA4GA1UdDwEB/wQEAwIHgDAVBgNVHSUEDjAMBgorBgEEAYPoXgIBMAwGA1UdEwEB/wQCMAAwHwYDVR0jBBgwFoAUzlHiBIFOZFsj+OPEz5o+nMHXXMIwCgYIKoZIzj0EAwMDZwAwZAIwMXMdFJ4BetLLVY7ORuE9noqbbAZOZn/aArXyTwFAZfKrPzxF2vPoJNf1+UCdg1XGAjBwX1zd9WGqYkqmL5SFqw1QySjr1zJfpJM9+1rdDwSPLMOPOjKuiXjoU/pUUeG9RwmhY3BhZFkNngAAAAAAAAAAAAAAAAAAAAAAAAAAAAAAAAAAAAAAAAAAAAAAAAAAAAAAAAAAAAAAAAAAAAAAAAAAAAAAAAAAAAAAAAAAAAAAAAAAAAAAAAAAAAAAAAAAAAAAAAAAAAAAAAAAAAAAAAAAAAAAAAAAAAAAAAAAAAAAAAAAAAAAAAAAAAAAAAAAAAAAAAAAAAAAAAAAAAAAAAAAAAAAAAAAAAAAAAAAAAAAAAAAAAAAAAAAAAAAAAAAAAAAAAAAAAAAAAAAAAAAAAAAAAAAAAAAAAAAAAAAAAAAAAAAAAAAAAAAAAAAAAAAAAAAAAAAAAAAAAAAAAAAAAAAAAAAAAAAAAAAAAAAAAAAAAAAAAAAAAAAAAAAAAAAAAAAAAAAAAAAAAAAAAAAAAAAAAAAAAAAAAAAAAAAAAAAAAAAAAAAAAAAAAAAAAAAAAAAAAAAAAAAAAAAAAAAAAAAAAAAAAAAAAAAAAAAAAAAAAAAAAAAAAAAAAAAAAAAAAAAAAAAAAAAAAAAAAAAAAAAAAAAAAAAAAAAAAAAAAAAAAAAAAAAAAAAAAAAAAAAAAAAAAAAAAAAAAAAAAAAAAAAAAAAAAAAAAAAAAAAAAAAAAAAAAAAAAAAAAAAAAAAAAAAAAAAAAAAAAAAAAAAAAAAAAAAAAAAAAAAAAAAAAAAAAAAAAAAAAAAAAAAAAAAAAAAAAAAAAAAAAAAAAAAAAAAAAAAAAAAAAAAAAAAAAAAAAAAAAAAAAAAAAAAAAAAAAAAAAAAAAAAAAAAAAAAAAAAAAAAAAAAAAAAAAAAAAAAAAAAAAAAAAAAAAAAAAAAAAAAAAAAAAAAAAAAAAAAAAAAAAAAAAAAAAAAAAAAAAAAAAAAAAAAAAAAAAAAAAAAAAAAAAAAAAAAAAAAAAAAAAAAAAAAAAAAAAAAAAAAAAAAAAAAAAAAAAAAAAAAAAAAAAAAAAAAAAAAAAAAAAAAAAAAAAAAAAAAAAAAAAAAAAAAAAAAAAAAAAAAAAAAAAAAAAAAAAAAAAAAAAAAAAAAAAAAAAAAAAAAAAAAAAAAAAAAAAAAAAAAAAAAAAAAAAAAAAAAAAAAAAAAAAAAAAAAAAAAAAAAAAAAAAAAAAAAAAAAAAAAAAAAAAAAAAAAAAAAAAAAAAAAAAAAAAAAAAAAAAAAAAAAAAAAAAAAAAAAAAAAAAAAAAAAAAAAAAAAAAAAAAAAAAAAAAAAAAAAAAAAAAAAAAAAAAAAAAAAAAAAAAAAAAAAAAAAAAAAAAAAAAAAAAAAAAAAAAAAAAAAAAAAAAAAAAAAAAAAAAAAAAAAAAAAAAAAAAAAAAAAAAAAAAAAAAAAAAAAAAAAAAAAAAAAAAAAAAAAAAAAAAAAAAAAAAAAAAAAAAAAAAAAAAAAAAAAAAAAAAAAAAAAAAAAAAAAAAAAAAAAAAAAAAAAAAAAAAAAAAAAAAAAAAAAAAAAAAAAAAAAAAAAAAAAAAAAAAAAAAAAAAAAAAAAAAAAAAAAAAAAAAAAAAAAAAAAAAAAAAAAAAAAAAAAAAAAAAAAAAAAAAAAAAAAAAAAAAAAAAAAAAAAAAAAAAAAAAAAAAAAAAAAAAAAAAAAAAAAAAAAAAAAAAAAAAAAAAAAAAAAAAAAAAAAAAAAAAAAAAAAAAAAAAAAAAAAAAAAAAAAAAAAAAAAAAAAAAAAAAAAAAAAAAAAAAAAAAAAAAAAAAAAAAAAAAAAAAAAAAAAAAAAAAAAAAAAAAAAAAAAAAAAAAAAAAAAAAAAAAAAAAAAAAAAAAAAAAAAAAAAAAAAAAAAAAAAAAAAAAAAAAAAAAAAAAAAAAAAAAAAAAAAAAAAAAAAAAAAAAAAAAAAAAAAAAAAAAAAAAAAAAAAAAAAAAAAAAAAAAAAAAAAAAAAAAAAAAAAAAAAAAAAAAAAAAAAAAAAAAAAAAAAAAAAAAAAAAAAAAAAAAAAAAAAAAAAAAAAAAAAAAAAAAAAAAAAAAAAAAAAAAAAAAAAAAAAAAAAAAAAAAAAAAAAAAAAAAAAAAAAAAAAAAAAAAAAAAAAAAAAAAAAAAAAAAAAAAAAAAAAAAAAAAAAAAAAAAAAAAAAAAAAAAAAAAAAAAAAAAAAAAAAAAAAAAAAAAAAAAAAAAAAAAAAAAAAAAAAAAAAAAAAAAAAAAAAAAAAAAAAAAAAAAAAAAAAAAAAAAAAAAAAAAAAAAAAAAAAAAAAAAAAAAAAAAAAAAAAAAAAAAAAAAAAAAAAAAAAAAAAAAAAAAAAAAAAAAAAAAAAAAAAAAAAAAAAAAAAAAAAAAAAAAAAAAAAAAAAAAAAAAAAAAAAAAAAAAAAAAAAAAAAAAAAAAAAAAAAAAAAAAAAAAAAAAAAAAAAAAAAAAAAAAAAAAAAAAAAAAAAAAAAAAAAAAAAAAAAAAAAAAAAAAAAAAAAAAAAAAAAAAAAAAAAAAAAAAAAAAAAAAAAAAAAAAAAAAAAAAAAAAAAAAAAAAAAAAAAAAAAAAAAAAAAAAAAAAAAAAAAAAAAAAAAAAAAAAAAAAAAAAAAAAAAAAAAAAAAAAAAAAAAAAAAAAAAAAAAAAAAAAAAAAAAAAAAAAAAAAAAAAAAAAAAAAAAAAAAAAAAAAAAAAAAAAAAAAAAAAAAAAAAAAAAAAAAAAAAAAAAAAAAAAAAAAAAAAAAAAAAAAAAAAAAAAAAAAAAAAAAAAAAAAAAAAAAAAAAAAAAAAAAAAAAAAAAAAAAAAAAAAAAAAAAAAAAAAAAAAAAAAAAAAAAAAAAAAAAAAAAAAAAAAAAAAAAAAAAAAAAAAAAAAAAAAAAAAAAAAAAAAAAAAAAAAAAAAAAAAAAAAAAAAAAAAAAAAAAAAAAAAAAAAAAAAAAAAAAAAAAAAAAAAAAAAAAAAAAAAAAAAAAAAAAAAAAAAAAAAAAAAAAAAAAAAAAAAAAAAAAAAAAAAAAAAAAAAAAAAAAAAAAAAAAAAAAAAAAAAAAAAAAAAAAAAAAAAAAAAAAAAAAAAAAAAAAAAAAAAAAAAAAAAAAAAAAAAAAAAAAAAAAAAAAAAAAAAAAAAAAAAAAAAAAAAAAAAAAAAAAAAAAAAAAAAAAAAAAAAAAAAAAAAAAAAAAAAAAAAAAAAAAAAAAAAAAAAAAAAAAAAAAAAAAAAAAAAAAAAAAAAAAAAAAAAAAAAAAAAAAAAAAAAAAAAAAAAAAAAAAAAAAAAAAAAAAAAAAAAAAAAAAAAAAAAAAAAAAAAAAAAAAAAAAAAAAAAAAAAAAAAAAAAAAAAAAAAAAAAAAAAAAAAAAAAAAAAAAAAAAAAAAAAAAAAAAAAAAAAAAAAAAAAAAAAAAAAAAAAAAAAAAAAAAAAAAAAAAAAAAAAAAAAAAAAAAAAAAAAAAAAAAAAAAAAAAAAAAAAAAAAAAAAAAAAAAAAAAAAAAAAAAAAAAAAAAAAAAAAAAAAAAAAAAAAAAAAAAAAAAAAAAAAAAAAAAAAAAAAAAAAAAAAAAAAAAAAAAAAAAAAAAAAAAAAAAAAAAAAAAAAAAAAAAAAAAAAAAAAAAAAAAAAAAAAAAAAAAAAAAAAAAAAAAAAAAAAAAAAAAAAAAAAAAAAAAAAAAAAAAAAAAAAAAAAAAAAAAAAAAAAAAAAAAAAAAAAAAAAAAAAAAAAAAAAAAAAAAAAAAAAAAAAAAAAAAAAAAAAAAAAAAAAAAAAAAAAAAAAAAAAAAAAAAAAAAAAAAAAAAAAAAAAAAAAAAAAAAAAAAAAAAAAAAAAAAAAAAAAAAAAAAAAAAAAAAAAAAAAAAAAAAAAAAAAAAAAAAAAAAAAAAAAAAAAAAAAAAAAAAAAAAAAAAAAAAAAAAAAAAAAAAAAAAAAAAAAAAAAAAAAAAAAAAAAAAAAAAAAAAAAAAAAAAAAAAAAAAAAAAAAAAAAAAAAAAAAAAAAAAAAAAAAAAAAAAAAAAAAAAAAAAAAAAAAAAAAAAAAAAAAAAAAAAAAAAAAAAAAAAAAAAAAAAAAAAAAAAAAAAAAAAAAAAAAAAAAAAAAAAAAAAAAAAAAAAAAAAAAAAAAAAAAAAAAAAAAAAAAAAAAAAAAAAAAAAAAAAAAAAAAAAAAAAAAAAAAAAAAAAAAAAAAAAAAAAAAAAAAAAAAAAAAAAAAAAAAAAAAAAAAAAAAAAAAAAAAAAAAAAAAAAAAAAAAAAAAAAAAAAAAAAAAAAAAAAAAAAAAAAAAAAAAAAAAAAAAAAAAAAAAAAAAAAAAAAAAAAAAAAAAAAAAAAAAAAAAAAAAAAAAAAAAAAAAAAAAAAAAAAAAAAAAAAAAAAAAAAAAAAAAAAAAAAAAAAAAAAAAAAAAAAAAAAAAAAAAAAAAAAAAAAAAAAAAAAAAAAAAAAAAAAAAAAAAAAAAAAAAAAAAAAAAAAAAAAAAAAAAAAAAAAAAAAAAAAAAAAAAAAAAAAAAAAAAAAAAAAAAAAAAAAAAAAAAAAAAAAAAAAAAAAAAAAAAAAAAAAAAAAAAAAAAAAAAAAAAAAAAAAAAAAAAAAAAAAAAAAAAAAAAAAAAAAAAAAAAAAAAAAAAAAAAAAAAAAAAAAAAAAAAAAAAAAAAAAAAAAAAAAAAAAAAAAAAAAAAAAAAAAAAAAAAAAAAAAAAAAAAAAAAAAAAAAAAAAAAAAAAAAAAAAAAAAAAAAAAAAAAAAAAAAAPZYQK4Y6aTWw4p4BXFwpesFpYxIoGm3CAauWWh5Dmqu2LNTdcawcScQpb/gviyV5OVe/6WZEVrpoKsa0hE/Aq2Is4o=</c2pa:manifest></metadata>
<defs><filter id="sh" x="-5%" y="-5%" width="110%" height="115%"><feDropShadow dx="0" dy="3" stdDeviation="4" flood-color="#15304A" flood-opacity="0.18"/></filter>
<linearGradient id="g_contactos" x1="0" x2="1"><stop offset="0" stop-color="#C2410C"/><stop offset="1" stop-color="#E0663A"/></linearGradient>
<linearGradient id="g_usuarios" x1="0" x2="1"><stop offset="0" stop-color="#15304A"/><stop offset="1" stop-color="#2A5A86"/></linearGradient>
<linearGradient id="g_wallets" x1="0" x2="1"><stop offset="0" stop-color="#136F63"/><stop offset="1" stop-color="#1F9A86"/></linearGradient>
<linearGradient id="g_transacciones" x1="0" x2="1"><stop offset="0" stop-color="#B8612A"/><stop offset="1" stop-color="#D9823F"/></linearGradient>
</defs><rect width="100%" height="100%" fill="#FFFFFF"/>
<text x="60" y="58" font-size="30" font-weight="bold" fill="#15304A">Quantum Wallet · Integración de la tabla contactos</text>
<text x="60" y="88" font-size="15" fill="#6A7A89">Relación de la agenda de contactos con usuarios, billeteras y transacciones de quantum_wallet.db</text>
<polyline points="600.0,203.0 470.0,203.0 470.0,233.0 400.0,233.0" fill="none" stroke="#15304A" stroke-width="2"/>
<line x1="590.0" y1="212.0" x2="590.0" y2="194.0" stroke="#15304A" stroke-width="2" fill="none"/><line x1="583.0" y1="212.0" x2="583.0" y2="194.0" stroke="#15304A" stroke-width="2" fill="none"/>
<line x1="416.0" y1="233.0" x2="400.0" y2="223.0" stroke="#15304A" stroke-width="2" fill="none"/><line x1="416.0" y1="233.0" x2="400.0" y2="243.0" stroke="#15304A" stroke-width="2" fill="none"/><line x1="416.0" y1="233.0" x2="400.0" y2="233.0" stroke="#15304A" stroke-width="2" fill="none"/><circle cx="426.0" cy="233.0" r="6" fill="#FFFFFF" stroke="#15304A" stroke-width="2"/>
<text x="478.0" y="191.0" font-size="13" text-anchor="start" font-weight="bold" fill="#15304A">agenda  1 : N</text>
<polyline points="600.0,263.0 510.0,263.0 510.0,473.0 400.0,473.0" fill="none" stroke="#15304A" stroke-width="2"/>
<line x1="590.0" y1="272.0" x2="590.0" y2="254.0" stroke="#15304A" stroke-width="2" fill="none"/><circle cx="576.0" cy="263.0" r="6" fill="#FFFFFF" stroke="#15304A" stroke-width="2"/>
<line x1="416.0" y1="473.0" x2="400.0" y2="463.0" stroke="#15304A" stroke-width="2" fill="none"/><line x1="416.0" y1="473.0" x2="400.0" y2="483.0" stroke="#15304A" stroke-width="2" fill="none"/><line x1="416.0" y1="473.0" x2="400.0" y2="473.0" stroke="#15304A" stroke-width="2" fill="none"/><circle cx="426.0" cy="473.0" r="6" fill="#FFFFFF" stroke="#15304A" stroke-width="2"/>
<text x="418.0" y="499.0" font-size="13" text-anchor="start" font-weight="bold" fill="#15304A">tiene cuenta Quantum</text>
<text x="418.0" y="517.0" font-size="13" text-anchor="start" font-weight="bold" fill="#15304A">0..1 : N</text>
<polyline points="770.0,316.0 770.0,560.0" fill="none" stroke="#15304A" stroke-width="2"/>
<line x1="779.0" y1="326.0" x2="761.0" y2="326.0" stroke="#15304A" stroke-width="2" fill="none"/><line x1="779.0" y1="333.0" x2="761.0" y2="333.0" stroke="#15304A" stroke-width="2" fill="none"/>
<line x1="761.0" y1="550.0" x2="779.0" y2="550.0" stroke="#15304A" stroke-width="2" fill="none"/><line x1="761.0" y1="543.0" x2="779.0" y2="543.0" stroke="#15304A" stroke-width="2" fill="none"/>
<text x="782.0" y="442.0" font-size="13" text-anchor="start" font-weight="bold" fill="#15304A">posee  1 : 1</text>
<polyline points="940.0,633.0 1000.0,633.0 1000.0,663.0 1060.0,663.0" fill="none" stroke="#15304A" stroke-width="2"/>
<line x1="950.0" y1="624.0" x2="950.0" y2="642.0" stroke="#15304A" stroke-width="2" fill="none"/><line x1="957.0" y1="624.0" x2="957.0" y2="642.0" stroke="#15304A" stroke-width="2" fill="none"/>
<line x1="1044.0" y1="663.0" x2="1060.0" y2="673.0" stroke="#15304A" stroke-width="2" fill="none"/><line x1="1044.0" y1="663.0" x2="1060.0" y2="653.0" stroke="#15304A" stroke-width="2" fill="none"/><line x1="1044.0" y1="663.0" x2="1060.0" y2="663.0" stroke="#15304A" stroke-width="2" fill="none"/><circle cx="1034.0" cy="663.0" r="6" fill="#FFFFFF" stroke="#15304A" stroke-width="2"/>
<text x="950.0" y="621.0" font-size="13" text-anchor="start" font-weight="bold" fill="#15304A">registra  1 : N</text>
<polyline points="230.0,586.0 230.0,693.0 600.0,693.0" fill="none" stroke="#15304A" stroke-width="2" stroke-dasharray="7 6"/>
<polygon points="600.0,693.0 586.0,700.0 586.0,686.0" fill="#15304A"/>
<text x="242.0" y="626.0" font-size="13" text-anchor="start" font-style="italic" fill="#6A7A89">transferir_a_contacto()</text>
<text x="242.0" y="644.0" font-size="13" text-anchor="start" font-style="italic" fill="#6A7A89">usa transferir() de Quantum Core</text>
<g filter="url(#sh)"><rect x="60" y="130" width="340" height="456" rx="7" fill="#FFFFFF" stroke="#C2410C" stroke-width="2"/></g>
<path d="M60,188 v-51 a7,7 0 0 1 7,-7 h326 a7,7 0 0 1 7,7 v51 z" fill="url(#g_contactos)"/>
<text x="230.0" y="159" font-size="17" font-weight="bold" fill="#FFFFFF" text-anchor="middle">contactos</text>
<text x="230.0" y="177" font-size="11" fill="#FFFFFF" fill-opacity="0.85" text-anchor="middle">Tabla creada en esta actividad</text>
<line x1="62" y1="218" x2="398" y2="218" stroke="#D5DEE7"/>
<rect x="72" y="195" width="24" height="16" rx="3" fill="#C0392B"/><text x="84" y="207" font-size="10" font-weight="bold" fill="#FFFFFF" text-anchor="middle">PK</text>
<text x="132" y="208" font-size="13.5" fill="#1F2D3D" font-family="Liberation Mono, Menlo, monospace" font-weight="bold">id_contacto</text>
<text x="386" y="208" font-size="12.5" fill="#2E6C99" text-anchor="end" font-family="Liberation Mono, Menlo, monospace">INTEGER</text>
<line x1="62" y1="248" x2="398" y2="248" stroke="#D5DEE7"/>
<rect x="72" y="225" width="24" height="16" rx="3" fill="#2E6C99"/><text x="84" y="237" font-size="10" font-weight="bold" fill="#FFFFFF" text-anchor="middle">FK</text>
<text x="132" y="238" font-size="13.5" fill="#1F2D3D" font-family="Liberation Mono, Menlo, monospace">id_usuario</text>
<text x="386" y="238" font-size="12.5" fill="#2E6C99" text-anchor="end" font-family="Liberation Mono, Menlo, monospace">INTEGER</text>
<line x1="62" y1="278" x2="398" y2="278" stroke="#D5DEE7"/>
<rect x="72" y="255" width="24" height="16" rx="3" fill="#2E8B57"/><text x="84" y="267" font-size="10" font-weight="bold" fill="#FFFFFF" text-anchor="middle">UK</text>
<text x="132" y="268" font-size="13.5" fill="#1F2D3D" font-family="Liberation Mono, Menlo, monospace">apodo</text>
<text x="386" y="268" font-size="12.5" fill="#2E6C99" text-anchor="end" font-family="Liberation Mono, Menlo, monospace">TEXT</text>
<rect x="62" y="278" width="336" height="30" fill="#FFF4D6"/>
<line x1="62" y1="308" x2="398" y2="308" stroke="#D5DEE7"/>
<text x="132" y="298" font-size="13.5" fill="#1F2D3D" font-family="Liberation Mono, Menlo, monospace">nombre_completo</text>
<text x="386" y="298" font-size="12.5" fill="#2E6C99" text-anchor="end" font-family="Liberation Mono, Menlo, monospace">TEXT</text>
<rect x="62" y="308" width="336" height="30" fill="#FFF4D6"/>
<line x1="62" y1="338" x2="398" y2="338" stroke="#D5DEE7"/>
<text x="132" y="328" font-size="13.5" fill="#1F2D3D" font-family="Liberation Mono, Menlo, monospace">categoria</text>
<text x="386" y="328" font-size="12.5" fill="#2E6C99" text-anchor="end" font-family="Liberation Mono, Menlo, monospace">TEXT</text>
<rect x="62" y="338" width="336" height="30" fill="#FFF4D6"/>
<line x1="62" y1="368" x2="398" y2="368" stroke="#D5DEE7"/>
<text x="132" y="358" font-size="13.5" fill="#1F2D3D" font-family="Liberation Mono, Menlo, monospace">empresa</text>
<text x="386" y="358" font-size="12.5" fill="#2E6C99" text-anchor="end" font-family="Liberation Mono, Menlo, monospace">TEXT</text>
<line x1="62" y1="398" x2="398" y2="398" stroke="#D5DEE7"/>
<rect x="72" y="375" width="24" height="16" rx="3" fill="#2E8B57"/><text x="84" y="387" font-size="10" font-weight="bold" fill="#FFFFFF" text-anchor="middle">UK</text>
<text x="132" y="388" font-size="13.5" fill="#1F2D3D" font-family="Liberation Mono, Menlo, monospace">numero</text>
<text x="386" y="388" font-size="12.5" fill="#2E6C99" text-anchor="end" font-family="Liberation Mono, Menlo, monospace">TEXT</text>
<rect x="62" y="398" width="336" height="30" fill="#FFF4D6"/>
<line x1="62" y1="428" x2="398" y2="428" stroke="#D5DEE7"/>
<text x="132" y="418" font-size="13.5" fill="#1F2D3D" font-family="Liberation Mono, Menlo, monospace">email</text>
<text x="386" y="418" font-size="12.5" fill="#2E6C99" text-anchor="end" font-family="Liberation Mono, Menlo, monospace">TEXT</text>
<rect x="62" y="428" width="336" height="30" fill="#FFF4D6"/>
<line x1="62" y1="458" x2="398" y2="458" stroke="#D5DEE7"/>
<text x="132" y="448" font-size="13.5" fill="#1F2D3D" font-family="Liberation Mono, Menlo, monospace">ciudad</text>
<text x="386" y="448" font-size="12.5" fill="#2E6C99" text-anchor="end" font-family="Liberation Mono, Menlo, monospace">TEXT</text>
<rect x="62" y="458" width="336" height="30" fill="#FFF4D6"/>
<line x1="62" y1="488" x2="398" y2="488" stroke="#D5DEE7"/>
<rect x="72" y="465" width="24" height="16" rx="3" fill="#2E6C99"/><text x="84" y="477" font-size="10" font-weight="bold" fill="#FFFFFF" text-anchor="middle">FK</text>
<text x="132" y="478" font-size="13.5" fill="#1F2D3D" font-family="Liberation Mono, Menlo, monospace">id_usuario_contacto</text>
<text x="386" y="478" font-size="12.5" fill="#2E6C99" text-anchor="end" font-family="Liberation Mono, Menlo, monospace">INTEGER</text>
<rect x="62" y="488" width="336" height="30" fill="#FFF4D6"/>
<line x1="62" y1="518" x2="398" y2="518" stroke="#D5DEE7"/>
<text x="132" y="508" font-size="13.5" fill="#1F2D3D" font-family="Liberation Mono, Menlo, monospace">favorito</text>
<text x="386" y="508" font-size="12.5" fill="#2E6C99" text-anchor="end" font-family="Liberation Mono, Menlo, monospace">INTEGER</text>
<rect x="62" y="518" width="336" height="30" fill="#FFF4D6"/>
<line x1="62" y1="548" x2="398" y2="548" stroke="#D5DEE7"/>
<text x="132" y="538" font-size="13.5" fill="#1F2D3D" font-family="Liberation Mono, Menlo, monospace">fecha_creacion</text>
<text x="386" y="538" font-size="12.5" fill="#2E6C99" text-anchor="end" font-family="Liberation Mono, Menlo, monospace">TEXT</text>
<rect x="62" y="548" width="336" height="30" fill="#FFF4D6"/>
<text x="132" y="568" font-size="13.5" fill="#1F2D3D" font-family="Liberation Mono, Menlo, monospace">fecha_actualizacion</text>
<text x="386" y="568" font-size="12.5" fill="#2E6C99" text-anchor="end" font-family="Liberation Mono, Menlo, monospace">TEXT</text>
<g filter="url(#sh)"><rect x="600" y="130" width="340" height="186" rx="7" fill="#FFFFFF" stroke="#15304A" stroke-width="2"/></g>
<path d="M600,188 v-51 a7,7 0 0 1 7,-7 h326 a7,7 0 0 1 7,7 v51 z" fill="url(#g_usuarios)"/>
<text x="770.0" y="159" font-size="17" font-weight="bold" fill="#FFFFFF" text-anchor="middle">usuarios</text>
<text x="770.0" y="177" font-size="11" fill="#FFFFFF" fill-opacity="0.85" text-anchor="middle">Estructura existente de Quantum Core</text>
<line x1="602" y1="218" x2="938" y2="218" stroke="#D5DEE7"/>
<rect x="612" y="195" width="24" height="16" rx="3" fill="#C0392B"/><text x="624" y="207" font-size="10" font-weight="bold" fill="#FFFFFF" text-anchor="middle">PK</text>
<text x="672" y="208" font-size="13.5" fill="#1F2D3D" font-family="Liberation Mono, Menlo, monospace" font-weight="bold">id_usuario</text>
<text x="926" y="208" font-size="12.5" fill="#2E6C99" text-anchor="end" font-family="Liberation Mono, Menlo, monospace">INTEGER</text>
<line x1="602" y1="248" x2="938" y2="248" stroke="#D5DEE7"/>
<text x="672" y="238" font-size="13.5" fill="#1F2D3D" font-family="Liberation Mono, Menlo, monospace">tipo_usuario</text>
<text x="926" y="238" font-size="12.5" fill="#2E6C99" text-anchor="end" font-family="Liberation Mono, Menlo, monospace">TEXT</text>
<line x1="602" y1="278" x2="938" y2="278" stroke="#D5DEE7"/>
<text x="672" y="268" font-size="13.5" fill="#1F2D3D" font-family="Liberation Mono, Menlo, monospace">nombre</text>
<text x="926" y="268" font-size="12.5" fill="#2E6C99" text-anchor="end" font-family="Liberation Mono, Menlo, monospace">TEXT</text>
<rect x="612" y="285" width="24" height="16" rx="3" fill="#2E8B57"/><text x="624" y="297" font-size="10" font-weight="bold" fill="#FFFFFF" text-anchor="middle">UK</text>
<text x="672" y="298" font-size="13.5" fill="#1F2D3D" font-family="Liberation Mono, Menlo, monospace">email</text>
<text x="926" y="298" font-size="12.5" fill="#2E6C99" text-anchor="end" font-family="Liberation Mono, Menlo, monospace">TEXT</text>
<g filter="url(#sh)"><rect x="600" y="560" width="340" height="186" rx="7" fill="#FFFFFF" stroke="#136F63" stroke-width="2"/></g>
<path d="M600,618 v-51 a7,7 0 0 1 7,-7 h326 a7,7 0 0 1 7,7 v51 z" fill="url(#g_wallets)"/>
<text x="770.0" y="589" font-size="17" font-weight="bold" fill="#FFFFFF" text-anchor="middle">wallets</text>
<text x="770.0" y="607" font-size="11" fill="#FFFFFF" fill-opacity="0.85" text-anchor="middle">Estructura existente de Quantum Core</text>
<line x1="602" y1="648" x2="938" y2="648" stroke="#D5DEE7"/>
<rect x="612" y="625" width="24" height="16" rx="3" fill="#C0392B"/><text x="624" y="637" font-size="10" font-weight="bold" fill="#FFFFFF" text-anchor="middle">PK</text>
<text x="672" y="638" font-size="13.5" fill="#1F2D3D" font-family="Liberation Mono, Menlo, monospace" font-weight="bold">id_wallet</text>
<text x="926" y="638" font-size="12.5" fill="#2E6C99" text-anchor="end" font-family="Liberation Mono, Menlo, monospace">INTEGER</text>
<line x1="602" y1="678" x2="938" y2="678" stroke="#D5DEE7"/>
<rect x="612" y="655" width="24" height="16" rx="3" fill="#2E8B57"/><text x="624" y="667" font-size="10" font-weight="bold" fill="#FFFFFF" text-anchor="middle">UK</text>
<text x="672" y="668" font-size="13.5" fill="#1F2D3D" font-family="Liberation Mono, Menlo, monospace">codigo</text>
<text x="926" y="668" font-size="12.5" fill="#2E6C99" text-anchor="end" font-family="Liberation Mono, Menlo, monospace">TEXT</text>
<line x1="602" y1="708" x2="938" y2="708" stroke="#D5DEE7"/>
<text x="672" y="698" font-size="13.5" fill="#1F2D3D" font-family="Liberation Mono, Menlo, monospace">saldo</text>
<text x="926" y="698" font-size="12.5" fill="#2E6C99" text-anchor="end" font-family="Liberation Mono, Menlo, monospace">REAL</text>
<rect x="612" y="715" width="24" height="16" rx="3" fill="#2E6C99"/><text x="624" y="727" font-size="10" font-weight="bold" fill="#FFFFFF" text-anchor="middle">FK</text>
<rect x="640" y="715" width="24" height="16" rx="3" fill="#2E8B57"/><text x="652" y="727" font-size="10" font-weight="bold" fill="#FFFFFF" text-anchor="middle">UK</text>
<text x="672" y="728" font-size="13.5" fill="#1F2D3D" font-family="Liberation Mono, Menlo, monospace">id_propietario</text>
<text x="926" y="728" font-size="12.5" fill="#2E6C99" text-anchor="end" font-family="Liberation Mono, Menlo, monospace">INTEGER</text>
<g filter="url(#sh)"><rect x="1060" y="560" width="340" height="246" rx="7" fill="#FFFFFF" stroke="#B8612A" stroke-width="2"/></g>
<path d="M1060,618 v-51 a7,7 0 0 1 7,-7 h326 a7,7 0 0 1 7,7 v51 z" fill="url(#g_transacciones)"/>
<text x="1230.0" y="589" font-size="17" font-weight="bold" fill="#FFFFFF" text-anchor="middle">transacciones</text>
<text x="1230.0" y="607" font-size="11" fill="#FFFFFF" fill-opacity="0.85" text-anchor="middle">Estructura existente de Quantum Core</text>
<line x1="1062" y1="648" x2="1398" y2="648" stroke="#D5DEE7"/>
<rect x="1072" y="625" width="24" height="16" rx="3" fill="#C0392B"/><text x="1084" y="637" font-size="10" font-weight="bold" fill="#FFFFFF" text-anchor="middle">PK</text>
<text x="1132" y="638" font-size="13.5" fill="#1F2D3D" font-family="Liberation Mono, Menlo, monospace" font-weight="bold">id_transaccion</text>
<text x="1386" y="638" font-size="12.5" fill="#2E6C99" text-anchor="end" font-family="Liberation Mono, Menlo, monospace">INTEGER</text>
<line x1="1062" y1="678" x2="1398" y2="678" stroke="#D5DEE7"/>
<rect x="1072" y="655" width="24" height="16" rx="3" fill="#2E6C99"/><text x="1084" y="667" font-size="10" font-weight="bold" fill="#FFFFFF" text-anchor="middle">FK</text>
<text x="1132" y="668" font-size="13.5" fill="#1F2D3D" font-family="Liberation Mono, Menlo, monospace">id_wallet</text>
<text x="1386" y="668" font-size="12.5" fill="#2E6C99" text-anchor="end" font-family="Liberation Mono, Menlo, monospace">INTEGER</text>
<line x1="1062" y1="708" x2="1398" y2="708" stroke="#D5DEE7"/>
<text x="1132" y="698" font-size="13.5" fill="#1F2D3D" font-family="Liberation Mono, Menlo, monospace">tipo</text>
<text x="1386" y="698" font-size="12.5" fill="#2E6C99" text-anchor="end" font-family="Liberation Mono, Menlo, monospace">TEXT</text>
<line x1="1062" y1="738" x2="1398" y2="738" stroke="#D5DEE7"/>
<text x="1132" y="728" font-size="13.5" fill="#1F2D3D" font-family="Liberation Mono, Menlo, monospace">monto</text>
<text x="1386" y="728" font-size="12.5" fill="#2E6C99" text-anchor="end" font-family="Liberation Mono, Menlo, monospace">REAL</text>
<line x1="1062" y1="768" x2="1398" y2="768" stroke="#D5DEE7"/>
<rect x="1072" y="745" width="24" height="16" rx="3" fill="#2E6C99"/><text x="1084" y="757" font-size="10" font-weight="bold" fill="#FFFFFF" text-anchor="middle">FK</text>
<text x="1132" y="758" font-size="13.5" fill="#1F2D3D" font-family="Liberation Mono, Menlo, monospace">id_wallet_contraparte</text>
<text x="1386" y="758" font-size="12.5" fill="#2E6C99" text-anchor="end" font-family="Liberation Mono, Menlo, monospace">INTEGER</text>
<text x="1132" y="788" font-size="13.5" fill="#1F2D3D" font-family="Liberation Mono, Menlo, monospace">descripcion</text>
<text x="1386" y="788" font-size="12.5" fill="#2E6C99" text-anchor="end" font-family="Liberation Mono, Menlo, monospace">TEXT</text>
<rect x="60" y="855" width="1340" height="110" rx="6" fill="#F4F6F8" stroke="#D5DEE7"/>
<text x="80" y="881" font-size="12" font-weight="bold" fill="#2E6C99" letter-spacing="1.5">CONVENCIONES</text>
<rect x="80" y="889" width="24" height="16" rx="3" fill="#C0392B"/><text x="92" y="901" font-size="10" font-weight="bold" fill="#FFF" text-anchor="middle">PK</text>
<text x="114" y="901" font-size="13" fill="#1F2D3D">Llave primaria</text>
<rect x="80" y="911" width="24" height="16" rx="3" fill="#2E6C99"/><text x="92" y="923" font-size="10" font-weight="bold" fill="#FFF" text-anchor="middle">FK</text>
<text x="114" y="923" font-size="13" fill="#1F2D3D">Llave foránea</text>
<rect x="80" y="933" width="24" height="16" rx="3" fill="#2E8B57"/><text x="92" y="945" font-size="10" font-weight="bold" fill="#FFF" text-anchor="middle">UK</text>
<text x="114" y="945" font-size="13" fill="#1F2D3D">Valor único (UNIQUE)</text>
<rect x="330" y="889" width="34" height="18" fill="#FFFFFF" stroke="#D5DEE7"/><text x="374" y="903" font-size="13" fill="#1F2D3D">Código original de la actividad o estructura existente</text>
<rect x="330" y="917" width="34" height="18" fill="#FFF4D6" stroke="#D5DEE7"/><text x="374" y="931" font-size="13" fill="#1F2D3D">Fila adicionada para enriquecer el ejercicio</text>
<text x="330" y="957" font-size="13" fill="#1F2D3D">Columnas blancas de contactos: especificación de la actividad</text>
<line x1="760" y1="897" x2="850" y2="897" stroke="#15304A" stroke-width="2"/>
<line x1="770.0" y1="888.0" x2="770.0" y2="906.0" stroke="#15304A" stroke-width="2" fill="none"/><line x1="777.0" y1="888.0" x2="777.0" y2="906.0" stroke="#15304A" stroke-width="2" fill="none"/>
<line x1="840.0" y1="906.0" x2="840.0" y2="888.0" stroke="#15304A" stroke-width="2" fill="none"/><line x1="833.0" y1="906.0" x2="833.0" y2="888.0" stroke="#15304A" stroke-width="2" fill="none"/>
<text x="868" y="902" font-size="13" fill="#1F2D3D">Exactamente uno a exactamente uno (1 : 1)</text>
<line x1="760" y1="925" x2="850" y2="925" stroke="#15304A" stroke-width="2"/>
<line x1="770.0" y1="916.0" x2="770.0" y2="934.0" stroke="#15304A" stroke-width="2" fill="none"/><line x1="777.0" y1="916.0" x2="777.0" y2="934.0" stroke="#15304A" stroke-width="2" fill="none"/>
<line x1="834.0" y1="925.0" x2="850.0" y2="935.0" stroke="#15304A" stroke-width="2" fill="none"/><line x1="834.0" y1="925.0" x2="850.0" y2="915.0" stroke="#15304A" stroke-width="2" fill="none"/><line x1="834.0" y1="925.0" x2="850.0" y2="925.0" stroke="#15304A" stroke-width="2" fill="none"/><circle cx="824.0" cy="925.0" r="6" fill="#FFFFFF" stroke="#15304A" stroke-width="2"/>
<text x="868" y="930" font-size="13" fill="#1F2D3D">Uno a cero o muchos (1 : N)</text>
<line x1="760" y1="953" x2="850" y2="953" stroke="#15304A" stroke-width="2" stroke-dasharray="7 6"/>
<polygon points="850.0,953.0 836.0,960.0 836.0,946.0" fill="#15304A"/>
<text x="868" y="958" font-size="13" fill="#1F2D3D">Uso de una función de Quantum Core</text>
<line x1="1160" y1="897" x2="1210" y2="897" stroke="#15304A" stroke-width="2"/>
<line x1="1200.0" y1="906.0" x2="1200.0" y2="888.0" stroke="#15304A" stroke-width="2" fill="none"/><circle cx="1186.0" cy="897.0" r="6" fill="#FFFFFF" stroke="#15304A" stroke-width="2"/>
<text x="1228" y="902" font-size="13" fill="#1F2D3D">Cero o uno (0..1)</text>
</svg>